<?xml version="1.0" standalone="no"?>
<!DOCTYPE svg PUBLIC "-//W3C//DTD SVG 20010904//EN"
 "http://www.w3.org/TR/2001/REC-SVG-20010904/DTD/svg10.dtd">
<svg version="1.0" xmlns="http://www.w3.org/2000/svg"
 width="1200.000000pt" height="1200.000000pt" viewBox="0 0 1200.000000 1200.000000"
 preserveAspectRatio="xMidYMid meet">
<metadata>
Created by potrace 1.14, written by Peter Selinger 2001-2017
</metadata>
<g transform="translate(0.000000,1200.000000) scale(0.100000,-0.100000)"
fill="#000000" stroke="none">
<path d="M5758 10245 c-2 -2 -47 -6 -100 -10 -53 -3 -107 -8 -120 -10 -13 -2
-45 -7 -73 -10 -27 -3 -75 -10 -105 -15 -30 -5 -68 -11 -85 -13 -27 -4 -118
-21 -170 -31 -232 -46 -596 -165 -845 -277 -106 -48 -342 -169 -361 -185 -8
-8 -19 -14 -22 -14 -35 0 -510 -331 -623 -435 -6 -5 -42 -37 -79 -70 -112 -99
-275 -264 -400 -406 -25 -28 -92 -113 -228 -289 -99 -128 -270 -417 -373 -630
-31 -63 -72 -153 -91 -200 -19 -47 -40 -98 -48 -115 -64 -144 -180 -561 -215
-775 -27 -159 -27 -164 -35 -229 -4 -30 -8 -62 -10 -71 -25 -130 -25 -781 -1
-917 2 -10 7 -45 11 -78 4 -32 8 -66 10 -75 2 -13 10 -61 30 -185 19 -120 81
-361 133 -520 41 -123 115 -322 132 -353 5 -9 21 -46 37 -82 32 -77 158 -324
183 -360 10 -14 28 -45 41 -69 13 -24 29 -51 34 -60 24 -38 130 -196 135 -201
3 -3 21 -27 40 -55 19 -27 38 -54 42 -60 211 -264 340 -406 531 -582 121 -113
333 -282 437 -349 25 -16 47 -31 50 -35 5 -5 33 -23 156 -101 109 -70 347
-195 499 -263 351 -159 776 -276 1190 -330 28 -4 61 -8 75 -10 197 -26 729
-26 925 0 47 6 184 26 208 30 12 2 67 11 122 21 276 46 663 168 960 302 86 39
327 162 345 176 8 6 35 22 60 35 25 13 52 29 60 36 8 6 53 36 100 65 47 29 87
56 90 59 3 4 23 18 45 32 38 24 267 201 291 224 6 5 39 34 73 64 102 89 329
320 406 413 11 13 41 48 66 78 25 30 72 91 105 135 32 44 61 82 64 85 14 14
164 247 212 330 151 260 277 539 368 820 18 52 33 102 36 110 2 8 19 76 39
150 42 163 38 141 90 450 3 14 7 49 11 78 3 29 7 61 9 71 25 131 26 784 1 917
-2 11 -7 48 -12 84 -4 36 -8 67 -9 70 -1 3 -5 30 -9 60 -5 30 -10 64 -12 75
-2 11 -7 34 -9 50 -28 159 -79 357 -138 535 -51 152 -115 320 -128 334 -5 6
-9 15 -9 22 0 28 -166 353 -252 495 -24 38 -47 78 -53 88 -13 23 -108 165
-115 171 -3 3 -21 28 -40 55 -19 28 -38 55 -42 60 -128 160 -174 215 -242 290
-363 400 -763 706 -1236 946 -357 181 -773 323 -1125 384 -334 57 -422 65
-767 69 -147 2 -269 2 -270 1z m388 -3020 c258 -52 438 -134 576 -265 l48 -45
-56 -70 c-31 -38 -63 -79 -72 -90 -10 -11 -51 -63 -92 -115 -83 -105 -96 -120
-105 -120 -3 0 -30 15 -59 34 -129 82 -251 124 -384 130 -132 6 -228 -20 -265
-70 -10 -13 -21 -46 -24 -74 -8 -67 21 -109 102 -149 73 -36 251 -112 360
-152 133 -50 156 -60 255 -107 167 -79 274 -179 340 -317 46 -98 64 -181 64
-305 0 -112 -7 -161 -40 -254 -21 -61 -67 -152 -83 -166 -3 -3 -21 -25 -40
-50 -102 -134 -330 -266 -511 -294 -19 -3 -46 -8 -60 -11 -135 -27 -334 -20
-508 20 -215 50 -452 164 -591 284 l-34 30 44 53 c24 29 46 55 49 58 3 3 37
43 75 90 38 47 74 90 80 96 5 6 25 29 43 52 64 78 82 97 82 85 0 -7 4 -13 10
-13 5 0 31 -15 57 -34 58 -40 187 -107 264 -136 127 -47 307 -59 394 -26 23 9
57 33 75 53 29 31 33 43 34 92 2 103 -33 128 -364 261 -170 69 -181 73 -290
123 -127 58 -327 219 -346 279 -3 10 -9 18 -14 18 -11 0 -60 105 -77 165 -22
81 -31 224 -18 304 14 87 57 212 81 231 8 7 14 17 14 23 0 12 62 90 109 137
94 93 252 185 368 215 90 22 100 24 153 31 25 3 46 7 48 9 9 9 249 1 308 -10z
m-1555 -31 c15 -4 17 -32 17 -269 l-1 -265 -26 -1 c-14 0 -223 -1 -463 -1
l-438 -1 -1 -31 c-3 -124 1 -337 6 -346 5 -8 11 -8 19 -1 7 6 15 8 19 5 3 -3
172 -6 376 -6 l371 0 1 -26 c4 -112 1 -504 -4 -508 -3 -4 -180 -7 -392 -7
-232 0 -388 -4 -391 -9 -8 -12 -8 -403 -1 -415 3 -4 219 -8 481 -8 312 0 477
-3 479 -10 3 -9 1 -511 -2 -525 -1 -3 -362 -5 -803 -5 l-803 0 -1 1210 c0 666
1 1213 3 1216 3 8 1529 10 1554 3z m3704 -3 c6 -3 26 -7 45 -8 72 -5 219 -39
278 -64 12 -5 34 -14 50 -20 136 -56 243 -142 321 -259 45 -67 88 -171 97
-237 3 -26 9 -52 12 -57 12 -20 9 -247 -4 -317 -8 -41 -15 -81 -17 -89 -6 -41
-55 -152 -93 -210 -44 -67 -132 -160 -194 -204 -110 -79 -310 -157 -437 -172
-26 -3 -61 -8 -78 -10 -16 -3 -109 -7 -205 -9 -96 -2 -180 -4 -186 -4 -7 -1
-10 -115 -10 -377 1 -241 -3 -378 -9 -382 -5 -4 -151 -7 -322 -7 l-313 -1 0
1217 0 1217 528 0 c290 -1 532 -3 537 -7z"/>
<path d="M7878 6687 c-3 -5 -6 -604 -3 -623 4 -19 10 -20 162 -18 164 3 218
11 283 44 103 52 161 169 155 312 -3 100 -21 146 -74 197 -31 30 -113 67 -166
76 -37 6 -353 17 -357 12z"/>
</g>
</svg>
